<?xml version="1.0" standalone="no"?>
<!DOCTYPE svg PUBLIC "-//W3C//DTD SVG 20010904//EN"
 "http://www.w3.org/TR/2001/REC-SVG-20010904/DTD/svg10.dtd">
<svg version="1.0" xmlns="http://www.w3.org/2000/svg"
 width="2489.000000pt" height="429.000000pt" viewBox="0 0 2489.000000 429.000000"
 preserveAspectRatio="xMidYMid meet">

<g transform="translate(0.000000,429.000000) scale(0.100000,-0.100000)"
fill="#000000" stroke="none">
<path d="M10440 2705 l0 -1575 185 0 184 0 3 110 3 110 81 -58 c224 -160 446
-226 683 -202 492 51 870 429 920 920 51 489 -268 960 -739 1089 -302 84 -585
29 -862 -165 -43 -30 -80 -54 -83 -54 -3 0 -5 315 -5 700 l0 700 -185 0 -185
0 0 -1575z m1197 51 c232 -62 419 -252 479 -486 23 -86 22 -235 0 -320 -64
-239 -250 -425 -486 -485 -99 -26 -272 -17 -368 17 -343 123 -524 485 -416
828 70 222 267 406 484 449 30 6 64 13 75 15 34 8 177 -3 232 -18z"/>
<path d="M21510 3574 l0 -705 -57 44 c-152 117 -341 197 -516 219 -243 31
-533 -56 -737 -219 -396 -318 -498 -896 -234 -1334 107 -178 243 -301 430
-391 217 -104 453 -129 675 -73 87 22 267 111 362 179 l77 56 0 -110 0 -110
185 0 185 0 0 1575 0 1575 -185 0 -185 0 0 -706z m-550 -808 c242 -43 438
-216 516 -453 26 -78 29 -102 28 -208 0 -103 -4 -131 -26 -196 -61 -174 -180
-315 -329 -387 -110 -55 -183 -72 -299 -72 -116 0 -188 17 -300 72 -109 53
-226 167 -283 275 -102 196 -103 428 0 626 47 92 181 228 268 273 143 75 276
97 425 70z"/>
<path d="M15986 3154 c-451 -89 -779 -450 -826 -907 -38 -374 136 -746 446
-953 103 -69 194 -110 314 -142 82 -22 116 -25 250 -26 129 0 168 4 235 22
105 29 261 106 357 176 42 31 79 56 83 56 4 0 5 -96 3 -212 -6 -238 -16 -288
-86 -423 -50 -95 -172 -217 -269 -268 -143 -75 -300 -95 -446 -58 -88 23 -205
75 -272 121 -52 36 -51 36 -135 -40 -25 -22 -78 -69 -117 -103 -40 -34 -73
-64 -73 -68 0 -20 157 -132 255 -181 161 -81 323 -113 528 -105 271 10 486
104 677 296 177 177 272 373 300 616 6 55 10 493 10 1133 l0 1042 -185 0 -185
0 0 -110 c0 -100 -7 -129 -25 -100 -8 13 -135 99 -195 132 -79 43 -192 86
-272 102 -94 19 -276 20 -372 0z m358 -364 c319 -81 540 -402 497 -720 -35
-262 -210 -476 -455 -557 -70 -23 -98 -27 -201 -27 -104 0 -131 4 -202 28
-421 139 -593 653 -337 1012 160 226 437 331 698 264z"/>
<path d="M8988 3125 c-408 -67 -714 -347 -830 -760 -30 -110 -36 -333 -10
-455 68 -326 263 -579 557 -722 216 -104 452 -130 678 -73 86 22 267 112 357
178 l75 55 3 -109 3 -109 184 0 185 0 0 985 0 985 -185 0 -185 0 0 -110 c0
-60 -2 -110 -4 -110 -2 0 -53 33 -114 74 -232 155 -468 212 -714 171z m331
-370 c222 -57 395 -221 467 -441 26 -79 29 -103 28 -209 0 -103 -4 -131 -26
-196 -71 -203 -213 -350 -416 -427 -60 -24 -81 -26 -207 -27 -121 0 -149 3
-210 24 -196 66 -354 224 -426 428 -30 82 -37 265 -15 353 91 365 452 587 805
495z"/>
<path d="M13658 3125 c-539 -88 -913 -575 -857 -1115 44 -434 347 -788 765
-896 459 -118 926 83 1162 501 256 454 115 1051 -319 1346 -210 142 -498 206
-751 164z m357 -385 c111 -34 192 -84 280 -174 131 -132 189 -271 189 -451 0
-190 -57 -328 -194 -466 -69 -70 -101 -94 -170 -128 -192 -94 -393 -95 -584
-2 -176 85 -309 253 -357 451 -18 75 -16 221 5 300 37 148 146 302 273 386 66
44 180 90 255 104 80 14 223 5 303 -20z"/>
<path d="M18380 3130 c-610 -86 -1007 -676 -856 -1272 91 -358 372 -646 719
-737 316 -82 607 -21 880 186 l57 44 0 -110 0 -111 185 0 185 0 0 985 0 985
-182 -2 -183 -3 -3 -107 c-2 -98 -10 -126 -27 -98 -13 22 -162 115 -249 156
-50 23 -129 52 -175 64 -97 24 -254 33 -351 20z m339 -385 c192 -61 351 -215
423 -409 40 -106 49 -254 23 -370 -48 -217 -214 -405 -427 -484 -67 -25 -85
-27 -218 -27 -131 1 -151 3 -212 27 -170 64 -298 178 -373 330 -58 119 -79
214 -72 333 20 325 253 577 582 628 60 10 199 -5 274 -28z"/>
<path d="M23030 3129 c-155 -20 -349 -98 -475 -191 -88 -65 -180 -162 -240
-253 -233 -353 -232 -794 3 -1154 46 -72 201 -227 273 -273 301 -197 663 -231
989 -94 46 20 85 36 86 36 1 0 148 -222 325 -492 356 -542 394 -590 514 -649
62 -30 79 -34 150 -34 96 0 144 20 186 77 61 85 60 216 -4 348 -35 74 -112
155 -371 390 -88 80 -164 150 -170 155 -6 6 -90 82 -186 169 -96 88 -186 169
-199 182 l-24 22 57 64 c117 128 200 295 238 478 29 136 21 347 -16 475 -148
502 -619 811 -1136 744z m262 -373 c378 -73 613 -440 518 -810 -54 -214 -222
-393 -433 -463 -71 -23 -98 -27 -207 -27 -111 0 -134 3 -205 28 -211 73 -366
234 -430 446 -25 84 -30 221 -11 310 33 156 134 314 255 399 159 111 334 151
513 117z"/>
</g>
</svg>
